<svg width="380" height="380" viewBox="0 0 380 380" fill="none" xmlns="http://www.w3.org/2000/svg">
<path d="M380 110.39V269.61C380 323 355.49 359.67 312.36 373.54C299.82 377.91 285.38 380 269.61 380H110.39C94.62 380 80.18 377.91 67.64 373.54C24.51 359.67 0 323 0 269.61V110.39C0 41.23 41.23 0 110.39 0H269.61C338.77 0 380 41.23 380 110.39Z" fill="#EAF4FF"/>
<path d="M312.341 373.521C299.801 377.891 285.361 379.981 269.591 379.981H110.371C94.6011 379.981 80.1611 377.891 67.6211 373.521C74.2711 323.361 126.711 284.411 189.981 284.411C253.251 284.411 305.691 323.361 312.341 373.521ZM258.058 182.02C258.058 219.64 227.658 250.23 190.038 250.23C152.418 250.23 122.018 219.64 122.018 182.02C122.018 144.4 152.418 114 190.038 114C227.658 114 258.058 144.4 258.058 182.02Z" fill="#0061C7"/>
</svg>
